<?xml version="1.0" encoding="UTF-8" standalone="no"?>
<!-- Created with Inkscape (http://www.inkscape.org/) -->

<svg
   xmlns:dc="http://purl.org/dc/elements/1.1/"
   xmlns:cc="http://creativecommons.org/ns#"
   xmlns:rdf="http://www.w3.org/1999/02/22-rdf-syntax-ns#"
   xmlns:svg="http://www.w3.org/2000/svg"
   xmlns="http://www.w3.org/2000/svg"
   xmlns:xlink="http://www.w3.org/1999/xlink"
   xmlns:sodipodi="http://sodipodi.sourceforge.net/DTD/sodipodi-0.dtd"
   xmlns:inkscape="http://www.inkscape.org/namespaces/inkscape"
   width="72.248886mm"
   height="72.248886mm"
   viewBox="0 0 255.99999 255.99999"
   id="svg2"
   version="1.1"
   inkscape:version="0.91 r13725"
   sodipodi:docname="fork-open.svg"
   inkscape:export-filename="/home/vinicio/fork-open-16.png"
   inkscape:export-xdpi="5.6300001"
   inkscape:export-ydpi="5.6300001">
  <defs
     id="defs4">
    <linearGradient
       id="linearGradient8226"
       inkscape:collect="always">
      <stop
         id="stop8228"
         offset="0"
         style="stop-color:#06a506;stop-opacity:1" />
      <stop
         id="stop8230"
         offset="1"
         style="stop-color:#046804;stop-opacity:1" />
    </linearGradient>
    <linearGradient
       inkscape:collect="always"
       id="linearGradient8214">
      <stop
         style="stop-color:#06a506;stop-opacity:1"
         offset="0"
         id="stop8216" />
      <stop
         style="stop-color:#058105;stop-opacity:1"
         offset="1"
         id="stop8218" />
    </linearGradient>
    <linearGradient
       inkscape:collect="always"
       id="linearGradient8206">
      <stop
         style="stop-color:#808080;stop-opacity:1;"
         offset="0"
         id="stop8208" />
      <stop
         style="stop-color:#ffffff;stop-opacity:1"
         offset="1"
         id="stop8210" />
    </linearGradient>
    <filter
       inkscape:collect="always"
       style="color-interpolation-filters:sRGB"
       id="filter8145"
       x="-0.032606002"
       width="1.065212"
       y="-0.040182658"
       height="1.0803653">
      <feGaussianBlur
         inkscape:collect="always"
         stdDeviation="2.9778218"
         id="feGaussianBlur8147" />
    </filter>
    <linearGradient
       inkscape:collect="always"
       xlink:href="#linearGradient8206"
       id="linearGradient8212"
       x1="323.21725"
       y1="622.44446"
       x2="323.21725"
       y2="656.03198"
       gradientUnits="userSpaceOnUse" />
    <radialGradient
       inkscape:collect="always"
       xlink:href="#linearGradient8226"
       id="radialGradient8220"
       cx="323.48773"
       cy="639.23822"
       fx="323.48773"
       fy="639.23822"
       r="14.921414"
       gradientUnits="userSpaceOnUse" />
    <radialGradient
       inkscape:collect="always"
       xlink:href="#linearGradient8214"
       id="radialGradient8224"
       gradientUnits="userSpaceOnUse"
       cx="323.48773"
       cy="639.23822"
       fx="323.48773"
       fy="639.23822"
       r="14.921414"
       gradientTransform="matrix(0.75031138,0,0,0.75031138,80.771203,159.6105)" />
  </defs>
  <sodipodi:namedview
     id="base"
     pagecolor="#ffffff"
     bordercolor="#666666"
     borderopacity="1.0"
     inkscape:pageopacity="0.0"
     inkscape:pageshadow="2"
     inkscape:zoom="0.7"
     inkscape:cx="74.819848"
     inkscape:cy="246.78455"
     inkscape:document-units="px"
     inkscape:current-layer="layer1"
     showgrid="false"
     fit-margin-top="0"
     fit-margin-left="0"
     fit-margin-right="0"
     fit-margin-bottom="0"
     showguides="true"
     inkscape:guide-bbox="true"
     inkscape:window-width="1920"
     inkscape:window-height="1056"
     inkscape:window-x="0"
     inkscape:window-y="24"
     inkscape:window-maximized="1" />
  <metadata
     id="metadata7">
    <rdf:RDF>
      <cc:Work
         rdf:about="">
        <dc:format>image/svg+xml</dc:format>
        <dc:type
           rdf:resource="http://purl.org/dc/dcmitype/StillImage" />
        <dc:title></dc:title>
      </cc:Work>
    </rdf:RDF>
  </metadata>
  <g
     inkscape:label="Layer 1"
     inkscape:groupmode="layer"
     id="layer1"
     transform="translate(-263.42856,-424.36221)">
    <g
       id="g8183"
       transform="translate(242.6928,0)">
      <rect
         transform="matrix(0.97472717,0,0,1.000983,3.7589734,-0.56265433)"
         ry="16.428572"
         y="483.43362"
         x="39.142857"
         height="177.85713"
         width="219.18579"
         id="rect8111"
         style="opacity:1;fill:#1a1a1a;fill-opacity:1;stroke:none;stroke-width:1;stroke-linecap:round;stroke-linejoin:round;stroke-miterlimit:4;stroke-dasharray:none;stroke-dashoffset:0;stroke-opacity:1;filter:url(#filter8145)" />
      <rect
         ry="16.428572"
         y="481.43362"
         x="39.142857"
         height="177.85713"
         width="219.18579"
         id="rect8113"
         style="opacity:1;fill:#b3b3b3;fill-opacity:1;stroke:none;stroke-width:1;stroke-linecap:round;stroke-linejoin:round;stroke-miterlimit:4;stroke-dasharray:none;stroke-dashoffset:0;stroke-opacity:1" />
      <rect
         style="opacity:1;fill:#cccccc;fill-opacity:1;stroke:none;stroke-width:1;stroke-linecap:round;stroke-linejoin:round;stroke-miterlimit:4;stroke-dasharray:none;stroke-dashoffset:0;stroke-opacity:1"
         id="rect8081"
         width="219.18579"
         height="177.85713"
         x="39.142857"
         y="477.43362"
         ry="16.428572" />
      <rect
         ry="16.428572"
         y="471.43362"
         x="39.142857"
         height="177.85713"
         width="219.18579"
         id="rect8115"
         style="opacity:1;fill:#ffffff;fill-opacity:1;stroke:none;stroke-width:1;stroke-linecap:round;stroke-linejoin:round;stroke-miterlimit:4;stroke-dasharray:none;stroke-dashoffset:0;stroke-opacity:1" />
      <rect
         ry="16.428572"
         y="466.79077"
         x="39.142857"
         height="177.85713"
         width="219.18579"
         id="rect8085"
         style="opacity:1;fill:#b3b3b3;fill-opacity:1;stroke:none;stroke-width:1;stroke-linecap:round;stroke-linejoin:round;stroke-miterlimit:4;stroke-dasharray:none;stroke-dashoffset:0;stroke-opacity:1" />
      <rect
         style="opacity:1;fill:#cccccc;fill-opacity:1;stroke:none;stroke-width:1;stroke-linecap:round;stroke-linejoin:round;stroke-miterlimit:4;stroke-dasharray:none;stroke-dashoffset:0;stroke-opacity:1"
         id="rect8123"
         width="219.18579"
         height="177.85713"
         x="39.142857"
         y="462.79077"
         ry="16.428572" />
      <rect
         ry="16.428572"
         y="456.79077"
         x="39.142857"
         height="177.85713"
         width="219.18579"
         id="rect8125"
         style="opacity:1;fill:#ffffff;fill-opacity:1;stroke:none;stroke-width:1;stroke-linecap:round;stroke-linejoin:round;stroke-miterlimit:4;stroke-dasharray:none;stroke-dashoffset:0;stroke-opacity:1" />
      <rect
         style="opacity:1;fill:#b3b3b3;fill-opacity:1;stroke:none;stroke-width:1;stroke-linecap:round;stroke-linejoin:round;stroke-miterlimit:4;stroke-dasharray:none;stroke-dashoffset:0;stroke-opacity:1"
         id="rect8087"
         width="219.18579"
         height="177.85713"
         x="39.142857"
         y="451.43362"
         ry="16.428572" />
      <rect
         ry="16.428572"
         y="441.07648"
         x="39.142857"
         height="177.85713"
         width="219.18579"
         id="rect8089"
         style="opacity:1;fill:#4689a8;fill-opacity:1;stroke:none;stroke-width:1;stroke-linecap:round;stroke-linejoin:round;stroke-miterlimit:4;stroke-dasharray:none;stroke-dashoffset:0;stroke-opacity:1" />
      <g
         transform="matrix(5.6778925,0,0,5.6778925,-1961.0637,-2398.6298)"
         id="text8091"
         style="font-style:normal;font-variant:normal;font-weight:600;font-stretch:normal;font-size:24.78499794px;line-height:125%;font-family:'Work Sans';-inkscape-font-specification:'Work Sans, Semi-Bold';text-align:start;letter-spacing:0px;word-spacing:0px;writing-mode:lr-tb;text-anchor:start;fill:#ffffff;fill-opacity:1;stroke:none;stroke-width:1px;stroke-linecap:butt;stroke-linejoin:miter;stroke-opacity:1">
        <path
           inkscape:connector-curvature="0"
           id="path8096"
           style="fill:#ffffff;fill-opacity:1"
           d="m 368.09604,524.70321 q 0.38726,-0.38726 0.38726,-0.9405 0,-0.55324 -0.38726,-0.9405 -0.38727,-0.38727 -0.9405,-0.38727 -0.55324,0 -0.94051,0.38727 -0.38726,0.38726 -0.38726,0.9405 0,0.55324 0.38726,0.9405 0.38727,0.38727 0.94051,0.38727 0.55323,0 0.9405,-0.38727 z m 0,-15.93321 q 0.38726,-0.38727 0.38726,-0.9405 0,-0.55324 -0.38726,-0.94051 -0.38727,-0.38726 -0.9405,-0.38726 -0.55324,0 -0.94051,0.38726 -0.38726,0.38727 -0.38726,0.94051 0,0.55323 0.38726,0.9405 0.38727,0.38726 0.94051,0.38726 0.55323,0 0.9405,-0.38726 z m 8.85178,1.77036 q 0.38727,-0.38727 0.38727,-0.94051 0,-0.55323 -0.38727,-0.9405 -0.38726,-0.38726 -0.9405,-0.38726 -0.55324,0 -0.9405,0.38726 -0.38727,0.38727 -0.38727,0.9405 0,0.55324 0.38727,0.94051 0.38726,0.38726 0.9405,0.38726 0.55324,0 0.9405,-0.38726 z m 1.71504,-0.94051 q 0,0.71921 -0.35961,1.3416 -0.3596,0.60856 -0.96816,0.95434 -0.0277,3.96947 -3.12579,5.72599 -0.9405,0.52558 -2.80767,1.12031 -1.77036,0.55323 -2.35126,0.98199 -0.56707,0.42876 -0.56707,1.38309 l 0,0.35961 q 0.60856,0.34577 0.96817,0.96816 0.3596,0.60856 0.3596,1.32777 0,1.10647 -0.77453,1.881 -0.77453,0.77454 -1.881,0.77454 -1.10648,0 -1.88101,-0.77454 -0.77453,-0.77453 -0.77453,-1.881 0,-0.71921 0.3596,-1.32777 0.35961,-0.62239 0.96817,-0.96816 l 0,-11.34135 q -0.60856,-0.34577 -0.96817,-0.95433 -0.3596,-0.6224 -0.3596,-1.3416 0,-1.10648 0.77453,-1.88101 0.77453,-0.77453 1.88101,-0.77453 1.10647,0 1.881,0.77453 0.77453,0.77453 0.77453,1.88101 0,0.7192 -0.3596,1.3416 -0.35961,0.60856 -0.96817,0.95433 l 0,6.87396 q 0.74687,-0.3596 2.12996,-0.78836 0.7607,-0.23512 1.20329,-0.4011 0.45642,-0.1798 0.982,-0.42875 0.52557,-0.26279 0.81602,-0.55324 0.29045,-0.29045 0.55324,-0.70538 0.27662,-0.41492 0.38726,-0.95433 0.12448,-0.55324 0.12448,-1.27244 -0.60856,-0.34578 -0.96816,-0.95434 -0.35961,-0.62239 -0.35961,-1.3416 0,-1.10647 0.77454,-1.881 0.77453,-0.77453 1.881,-0.77453 1.10647,0 1.881,0.77453 0.77454,0.77453 0.77454,1.881 z" />
      </g>
      <path
         transform="translate(263.42856,424.36221)"
         inkscape:connector-curvature="0"
         id="path8157"
         d="m -123.26045,200.95852 c -1.2222,-2.11481 -2.83007,-4.80941 -3.57305,-5.98798 -1.83986,-2.91855 -21.43535,-36.93421 -21.6866,-37.64561 -0.12428,-0.35188 0.19458,-0.21128 0.83639,0.36878 4.17972,3.77762 9.58837,4.79383 14.91245,2.80184 2.67328,-1.0002 5.81598,-3.90068 7.21226,-6.65638 0.97925,-1.93265 1.05539,-2.36686 1.05539,-6.019 0,-3.72842 -0.062,-4.06194 -1.17447,-6.32176 -0.8183,-1.66221 -1.83604,-2.98438 -3.35601,-4.35987 l -2.18154,-1.97418 0.20757,-2.47591 c 0.47618,-5.67984 2.22855,-7.04446 14.4464,-11.24979 11.73183,-4.03804 15.6346,-5.8082 19.673769,-8.92328 7.6732,-5.91771 11.232561,-13.160969 12.394865,-25.223409 0.214889,-2.230139 0.285025,-2.366942 1.783514,-3.478788 2.00365,-1.486669 3.493993,-3.670072 4.471439,-6.550828 0.644282,-1.89884 0.74765,-2.832486 0.602843,-5.44501 -0.09613,-1.734259 -0.05317,-3.019973 0.09545,-2.857143 0.243753,0.267048 16.968317,29.209743 55.066914,95.296058 7.360636,12.76785 14.1224535,24.58458 15.0262606,26.25938 l 1.6432822,3.04509 -1.0713286,2.23214 c -1.5251571,3.17772 -4.2767392,5.85564 -7.6926142,7.48667 l -2.793493,1.33386 -51.83875,0.0951 -51.838751,0.0951 -2.22219,-3.84513 z"
         style="opacity:1;fill:#000000;fill-opacity:0;stroke:none;stroke-width:1;stroke-linecap:round;stroke-linejoin:round;stroke-miterlimit:4;stroke-dasharray:none;stroke-dashoffset:0;stroke-opacity:1" />
      <path
         transform="translate(263.42856,424.36221)"
         inkscape:connector-curvature="0"
         id="path8159"
         d="m -123.92142,199.70269 c -1.63123,-2.79911 -3.69615,-6.29465 -4.58871,-7.76786 -4.7914,-7.90836 -19.44446,-33.63236 -19.26187,-33.81495 0.11728,-0.11727 0.78278,0.22119 1.4789,0.75214 3.98542,3.03983 9.97213,3.52676 14.62043,1.18917 2.09539,-1.05376 5.08462,-4.05872 6.09092,-6.12298 1.29583,-2.65816 1.67263,-5.13638 1.24498,-8.1881 -0.50042,-3.57092 -1.70994,-5.83938 -4.5102,-8.45889 l -2.35608,-2.204 0.23431,-2.37977 c 0.1312,-1.33245 0.59033,-3.08706 1.04326,-3.98691 1.39396,-2.76942 3.75416,-3.95756 16.67187,-8.39272 14.596712,-5.01163 21.044112,-9.7846 25.327955,-18.75014 1.782543,-3.730627 2.739943,-7.395972 3.295257,-12.61569 0.3041,-2.858442 0.579454,-4.08353 0.970029,-4.315843 1.6017,-0.952683 3.755035,-3.431555 4.767589,-5.48835 0.984018,-1.998824 1.167204,-2.802202 1.292579,-5.668777 0.08034,-1.836949 0.273575,-3.339907 0.42941,-3.339907 0.281222,0 5.680247,9.266435 33.814111,58.035717 25.441618,44.10234 33.9174572,58.85652 35.2889143,61.42857 0.7331715,1.375 1.4973429,2.70599 1.6981608,2.95776 0.5070821,0.63574 -0.16725,2.7347 -1.5485536,4.82009 -2.3268215,3.51285 -6.1841355,6.14459 -10.2637465,7.00265 -1.340025,0.28185 -16.619104,0.39807 -52.333118,0.39807 l -50.440537,0 -2.96586,-5.08928 z"
         style="opacity:1;fill:#000000;fill-opacity:0;stroke:none;stroke-width:1;stroke-linecap:round;stroke-linejoin:round;stroke-miterlimit:4;stroke-dasharray:none;stroke-dashoffset:0;stroke-opacity:1" />
      <path
         transform="translate(263.42856,424.36221)"
         inkscape:connector-curvature="0"
         id="path8163"
         d="m -123.77045,199.88126 c -1.55349,-2.7009 -3.17373,-5.39286 -3.60054,-5.98215 -0.65527,-0.90472 -18.83642,-32.28014 -20.144,-34.76273 -0.67637,-1.28417 -0.28836,-1.2595 1.74844,0.11117 2.6297,1.76966 5.22135,2.4512 8.58137,2.25668 8.94456,-0.51779 15.12999,-9.21556 12.56323,-17.66606 -0.88719,-2.92089 -2.98566,-6.00137 -5.07415,-7.4487 l -1.50254,-1.04126 0.23317,-2.5088 c 0.27532,-2.9623 1.28024,-5.23636 2.83958,-6.42573 1.68252,-1.28332 5.04568,-2.69358 12.2108,-5.1203 3.54511,-1.20068 8.16642,-2.904 10.26957,-3.78514 13.231879,-5.54366 20.01209,-15.01838 21.169619,-29.582567 0.200735,-2.525692 0.366767,-3.154095 0.876064,-3.315739 1.099207,-0.348875 3.933418,-3.696088 4.920828,-5.811512 0.767258,-1.643777 0.978247,-2.690156 1.08154,-5.363802 0.0832,-2.153531 0.262935,-3.276766 0.51111,-3.194041 0.381554,0.127185 67.3849469,115.851021 68.3256183,118.007491 0.2722215,0.62407 0.9952965,1.98326 1.6068322,3.02043 1.0028678,1.70086 1.0742107,2.01146 0.7276928,3.16804 -1.3338071,4.45185 -6.5379893,8.85992 -11.7556893,9.95736 -1.340021,0.28185 -16.617829,0.39807 -52.328304,0.39807 l -50.435731,0 -2.82451,-4.91071 z"
         style="opacity:1;fill:#ff0000;fill-opacity:0;stroke:none;stroke-width:1;stroke-linecap:round;stroke-linejoin:round;stroke-miterlimit:4;stroke-dasharray:none;stroke-dashoffset:0;stroke-opacity:1" />
      <path
         transform="translate(263.42856,424.36221)"
         inkscape:connector-curvature="0"
         id="path8167"
         d="m -127.65281,193.45936 c -2.56651,-4.0873 -20.3094,-35.14927 -20.16186,-35.29681 0.0964,-0.0964 1.01808,0.39183 2.04812,1.085 3.92297,2.63997 9.49157,3.08534 13.69767,1.09554 9.26793,-4.38443 10.82036,-17.43141 2.80329,-23.55941 l -1.90483,-1.456 0.2064,-2.36229 c 0.52596,-6.0198 2.05959,-7.19144 15.38898,-11.75669 12.61842,-4.32175 17.107003,-6.64117 21.798935,-11.26432 5.365214,-5.28656 8.250936,-11.795661 9.171789,-20.688124 l 0.406825,-3.928571 2.013815,-1.845901 c 3.386214,-3.10387 5.183407,-7.611178 4.728314,-11.858467 -0.122582,-1.144015 -0.04831,-1.521842 0.277796,-1.41314 0.244815,0.0816 6.655418,10.909284 14.24579,24.061511 14.535228,25.185932 29.729057,51.505282 45.095639,78.116442 8.8186463,15.27173 9.2088963,16.02556 8.6990856,16.80363 -0.9817426,1.49833 -4.0266676,3.53635 -6.9737036,4.66761 -1.963671,0.75379 -1.981286,0.75406 -56.330589,0.84999 l -54.366306,0.096 -0.84516,-1.34597 z"
         style="opacity:1;fill:#ff0000;fill-opacity:0;stroke:none;stroke-width:1;stroke-linecap:round;stroke-linejoin:round;stroke-miterlimit:4;stroke-dasharray:none;stroke-dashoffset:0;stroke-opacity:1" />
      <path
         transform="translate(263.42856,424.36221)"
         inkscape:connector-curvature="0"
         id="path8169"
         d="m -127.65281,193.45936 c -2.56651,-4.0873 -20.3094,-35.14927 -20.16186,-35.29681 0.0964,-0.0964 1.01808,0.39183 2.04812,1.085 3.92297,2.63997 9.49157,3.08534 13.69767,1.09554 9.26793,-4.38443 10.82036,-17.43141 2.80329,-23.55941 l -1.90483,-1.456 0.2064,-2.36229 c 0.52596,-6.0198 2.05959,-7.19144 15.38898,-11.75669 12.61842,-4.32175 17.107003,-6.64117 21.798935,-11.26432 5.365214,-5.28656 8.250936,-11.795661 9.171789,-20.688124 l 0.406825,-3.928571 2.013815,-1.845901 c 3.386214,-3.10387 5.183407,-7.611178 4.728314,-11.858467 -0.122582,-1.144015 -0.04831,-1.521842 0.277796,-1.41314 0.244815,0.0816 6.655418,10.909284 14.24579,24.061511 14.535228,25.185932 29.729057,51.505282 45.095639,78.116442 8.8186463,15.27173 9.2088963,16.02556 8.6990856,16.80363 -0.9817426,1.49833 -4.0266676,3.53635 -6.9737036,4.66761 -1.963671,0.75379 -1.981286,0.75406 -56.330589,0.84999 l -54.366306,0.096 -0.84516,-1.34597 z"
         style="opacity:1;fill:#ff0000;fill-opacity:0;stroke:none;stroke-width:1;stroke-linecap:round;stroke-linejoin:round;stroke-miterlimit:4;stroke-dasharray:none;stroke-dashoffset:0;stroke-opacity:1" />
      <path
         transform="translate(263.42856,424.36221)"
         inkscape:connector-curvature="0"
         id="path8181"
         d="m -132.41988,193.71994 c -0.33577,-0.52265 -4.50467,-7.71199 -9.26422,-15.9763 -4.75956,-8.26431 -8.8189,-15.28171 -9.02076,-15.59423 -0.55612,-0.861 0.003,-0.68278 1.34994,0.43067 2.79154,2.30679 5.75279,3.32091 9.68352,3.31624 4.41549,-0.005 8.03105,-1.62161 11.08685,-4.95648 5.8837,-6.42102 4.85616,-17.03214 -2.13391,-22.03627 l -1.65838,-1.18722 0.15864,-2.362 c 0.1754,-2.61171 0.79602,-4.69591 1.78402,-5.99125 1.58326,-2.07576 4.94384,-3.64258 15.39728,-7.17876 10.4219,-3.5255 13.45752,-4.8538 17.934969,-7.84781 9.139358,-6.11137 14.238222,-15.593235 14.983944,-27.864206 l 0.173388,-2.853124 1.641498,-1.253155 c 0.95022,-0.725418 2.192995,-2.018981 2.951074,-3.07167 2.213237,-3.073358 3.000429,-5.892276 2.783056,-9.966074 -0.0834,-1.56312 -0.04089,-2.445191 0.115347,-2.393112 0.136093,0.04536 15.524095,26.542711 34.195563,58.882991 l 33.9481234,58.80052 -0.8204357,1.5501 c -1.0864141,2.05263 -4.1507267,5.13495 -6.2501217,6.28687 -0.902824,0.49537 -2.436993,1.16641 -3.409265,1.49121 l -1.767767,0.59055 -56.625937,0.0664 -56.625936,0.0664 -0.61048,-0.95028 z"
         style="opacity:1;fill:#3f7b97;fill-opacity:1;stroke:none;stroke-width:1;stroke-linecap:round;stroke-linejoin:round;stroke-miterlimit:4;stroke-dasharray:none;stroke-dashoffset:0;stroke-opacity:1" />
    </g>
    <circle
       style="opacity:1;fill:url(#linearGradient8212);fill-opacity:1;stroke:none;stroke-width:1;stroke-linecap:round;stroke-linejoin:round;stroke-miterlimit:4;stroke-dasharray:none;stroke-dashoffset:0;stroke-opacity:1"
       id="path8202"
       cx="323.48773"
       cy="639.23822"
       r="17.064272" />
    <circle
       style="opacity:1;fill:url(#radialGradient8220);fill-opacity:1;stroke:none;stroke-width:1;stroke-linecap:round;stroke-linejoin:round;stroke-miterlimit:4;stroke-dasharray:none;stroke-dashoffset:0;stroke-opacity:1"
       id="circle8222"
       cx="323.48773"
       cy="639.23822"
       r="14.921414" />
    <circle
       r="11.195707"
       cy="639.23822"
       cx="323.48773"
       id="circle8204"
       style="opacity:1;fill:url(#radialGradient8224);fill-opacity:1;stroke:none;stroke-width:1;stroke-linecap:round;stroke-linejoin:round;stroke-miterlimit:4;stroke-dasharray:none;stroke-dashoffset:0;stroke-opacity:1" />
  </g>
</svg>
